<svg width="200" height="194" viewBox="0 0 200 194" fill="none" xmlns="http://www.w3.org/2000/svg">
<mask id="mask0_24_13" style="mask-type:luminance" maskUnits="userSpaceOnUse" x="25" y="39" width="150" height="78">
<path d="M25.3521 39.0687H174.552V116.669H25.3521V39.0687Z" fill="white"/>
</mask>
<g mask="url(#mask0_24_13)">
<path d="M171.552 116.656H99.9437V116.669H25.35V113.683C25.35 93.0812 33.7 74.4271 47.1979 60.925C60.6979 47.4229 79.3458 39.0708 99.9437 39.0708C120.542 39.0708 139.19 47.4229 152.687 60.925C166.187 74.4271 174.537 93.0812 174.537 113.683V116.656H171.552Z" fill="#5959b1"/>
</g>
<mask id="mask1_24_13" style="mask-type:luminance" maskUnits="userSpaceOnUse" x="57" y="52" width="86" height="65">
<path d="M57.3854 52.675H142.585V116.667H57.3854V52.675Z" fill="white"/>
</mask>
<g mask="url(#mask1_24_13)">
<path d="M58.0084 98.8667H76.8729C77.1063 98.8667 77.3417 98.6333 77.3417 98.4C77.3417 98.2438 77.2625 98.1646 77.1854 98.0875L67.8313 85.9229L67.7521 85.8438C67.675 85.7667 67.5188 85.6875 67.4417 85.6875C67.3625 85.6875 67.2084 85.7667 67.1292 85.8438L67.0521 85.9229L66.9729 86L57.775 98.0083L57.6188 98.1646C57.5417 98.2438 57.5417 98.3208 57.5417 98.4C57.5417 98.6333 57.775 98.8667 58.0084 98.8667ZM76.7959 100.583H57.8542C57.6188 100.583 57.3854 100.817 57.3854 101.05V115.867C57.3854 116.1 57.6188 116.335 57.8542 116.335H63.9334V107.054C63.9334 106.821 64.1667 106.588 64.4021 106.588H70.0146C70.2479 106.588 70.4813 106.821 70.4813 107.054V116.335H76.7167C76.9521 116.335 77.1854 116.1 77.1854 115.867V101.05C77.2625 100.817 77.1063 100.583 76.7959 100.583ZM142.119 96.6833H123.41C123.175 96.6833 122.942 96.9167 122.942 97.1521V116.023C122.942 116.256 123.175 116.49 123.41 116.49H142.119C142.352 116.49 142.585 116.256 142.585 116.023V97.1521C142.585 96.9167 142.429 96.6833 142.119 96.6833ZM131.906 109.083C131.906 109.317 131.673 109.55 131.44 109.55H125.827C125.592 109.55 125.358 109.317 125.358 109.083V105.652C125.358 105.417 125.592 105.183 125.827 105.183H131.44C131.673 105.183 131.906 105.417 131.906 105.652V109.083ZM131.906 102.767C131.906 103 131.673 103.233 131.44 103.233H125.827C125.592 103.233 125.358 103 125.358 102.767V99.3354C125.358 99.1 125.592 98.8667 125.827 98.8667H131.44C131.673 98.8667 131.906 99.1 131.906 99.3354V102.767ZM140.481 109.083C140.481 109.317 140.248 109.55 140.013 109.55H134.4C134.167 109.55 133.933 109.317 133.933 109.083V105.652C133.933 105.417 134.167 105.183 134.4 105.183H140.013C140.248 105.183 140.481 105.417 140.481 105.652V109.083ZM140.481 102.767C140.481 103 140.248 103.233 140.013 103.233H134.4C134.167 103.233 133.933 103 133.933 102.767V99.3354C133.933 99.1 134.167 98.8667 134.4 98.8667H140.013C140.248 98.8667 140.481 99.1 140.481 99.3354V102.767ZM98.6208 52.8583H80.3813C80.1479 52.8583 79.9125 53.0917 79.9125 53.325V115.944C79.9125 116.179 80.1479 116.412 80.3813 116.412H98.7C98.9333 116.412 99.1667 116.179 99.1667 115.944V53.325C99.0896 53.0146 98.9333 52.8583 98.6208 52.8583ZM87.7854 109.237C87.7854 109.394 87.7084 109.473 87.5521 109.473H83.3438C83.1875 109.473 83.1084 109.394 83.1084 109.237V104.56C83.1084 104.404 83.1875 104.325 83.3438 104.325H87.5521C87.7084 104.325 87.7854 104.404 87.7854 104.56V109.237ZM87.7854 98.4771C87.7854 98.6333 87.7084 98.7104 87.5521 98.7104H83.3438C83.1875 98.7104 83.1084 98.6333 83.1084 98.4771V93.7979C83.1084 93.6417 83.1875 93.5646 83.3438 93.5646H87.5521C87.7084 93.5646 87.7854 93.6417 87.7854 93.7979V98.4771ZM87.7854 87.7146C87.7854 87.8708 87.7084 87.95 87.5521 87.95H83.3438C83.1875 87.95 83.1084 87.8708 83.1084 87.7146V83.0375C83.1084 82.8813 83.1875 82.8021 83.3438 82.8021H87.5521C87.7084 82.8021 87.7854 82.8813 87.7854 83.0375V87.7146ZM87.7854 77.0313C87.7854 77.1875 87.7084 77.2667 87.5521 77.2667H83.3438C83.1875 77.2667 83.1084 77.1875 83.1084 77.0313V72.3542C83.1084 72.1979 83.1875 72.1188 83.3438 72.1188H87.5521C87.7084 72.1188 87.7854 72.1979 87.7854 72.3542V77.0313ZM87.7854 66.2708C87.7854 66.4271 87.7084 66.5042 87.5521 66.5042H83.3438C83.1875 66.5042 83.1084 66.4271 83.1084 66.2708V61.5917C83.1084 61.4354 83.1875 61.3583 83.3438 61.3583H87.5521C87.7084 61.3583 87.7854 61.4354 87.7854 61.5917V66.2708ZM95.9709 109.237C95.9709 109.394 95.8938 109.473 95.7375 109.473H91.5271C91.3729 109.473 91.2938 109.394 91.2938 109.237V104.56C91.2938 104.404 91.3729 104.325 91.5271 104.325H95.7375C95.8938 104.325 95.9709 104.404 95.9709 104.56V109.237ZM95.9709 98.4771C95.9709 98.6333 95.8938 98.7104 95.7375 98.7104H91.5271C91.3729 98.7104 91.2938 98.6333 91.2938 98.4771V93.7979C91.2938 93.6417 91.3729 93.5646 91.5271 93.5646H95.7375C95.8938 93.5646 95.9709 93.6417 95.9709 93.7979V98.4771ZM95.9709 87.7146C95.9709 87.8708 95.8938 87.95 95.7375 87.95H91.5271C91.3729 87.95 91.2938 87.8708 91.2938 87.7146V83.0375C91.2938 82.8813 91.3729 82.8021 91.5271 82.8021H95.7375C95.8938 82.8021 95.9709 82.8813 95.9709 83.0375V87.7146ZM95.9709 77.0313C95.9709 77.1875 95.8938 77.2667 95.7375 77.2667H91.5271C91.3729 77.2667 91.2938 77.1875 91.2938 77.0313V72.3542C91.2938 72.1979 91.3729 72.1188 91.5271 72.1188H95.7375C95.8938 72.1188 95.9709 72.1979 95.9709 72.3542V77.0313ZM95.9709 66.2708C95.9709 66.4271 95.8938 66.5042 95.7375 66.5042H91.5271C91.3729 66.5042 91.2938 66.4271 91.2938 66.2708V61.5917C91.2938 61.4354 91.3729 61.3583 91.5271 61.3583H95.7375C95.8938 61.3583 95.9709 61.4354 95.9709 61.5917V66.2708ZM142.585 94.8125C142.585 95.0458 142.429 95.2021 142.196 95.2021H123.331C123.098 95.2021 122.942 95.0458 122.942 94.8125V91.0688C122.942 90.8354 123.098 90.6792 123.331 90.6792H142.196C142.429 90.6792 142.585 90.8354 142.585 91.0688V94.8125ZM120.76 64.6333C120.681 64.4 120.525 64.3208 120.292 64.3208C120.215 64.3208 120.135 64.3208 120.058 64.4L119.902 64.5563L101.896 87.4042L101.817 87.4813C101.74 87.5604 101.663 87.7146 101.663 87.8708V115.944C101.663 116.179 101.896 116.412 102.129 116.412H120.448C120.681 116.412 120.915 116.179 120.915 115.944V64.7896C120.838 64.7896 120.838 64.7104 120.76 64.6333ZM113.198 77.0313L113.354 76.8771C114.602 75.3167 116.627 72.7438 117.642 71.4958L117.798 71.3396C117.875 71.2625 118.031 71.1833 118.188 71.1833C118.421 71.1833 118.654 71.3396 118.654 71.5729V77.3438C118.654 77.6563 118.421 77.8125 118.188 77.8896H113.667C113.354 77.8896 113.198 77.6563 113.198 77.3438C113.121 77.2667 113.121 77.1104 113.198 77.0313ZM110.315 109.004C110.315 109.237 110.081 109.473 109.846 109.473H104.39C104.156 109.473 103.923 109.237 103.923 109.004V105.573C103.923 105.34 104.156 105.106 104.39 105.106H109.846C110.081 105.106 110.315 105.34 110.315 105.573V109.004ZM110.315 102.767C110.315 103 110.081 103.233 109.846 103.233H104.39C104.156 103.233 103.923 103 103.923 102.767V99.3354C103.923 99.1 104.156 98.8667 104.39 98.8667H109.846C110.081 98.8667 110.315 99.1 110.315 99.3354V102.767ZM110.315 96.45C110.315 96.6833 110.081 96.9167 109.846 96.9167H104.39C104.156 96.9167 103.923 96.6833 103.923 96.45V93.0188C103.923 92.7833 104.156 92.55 104.39 92.55H109.846C110.081 92.55 110.315 92.7833 110.315 93.0188V96.45ZM110.392 82.5688V90.0542C110.392 90.2896 110.158 90.5229 109.925 90.5229H104.469C104.233 90.5229 104 90.2896 104 90.0542V88.8854C104 88.8854 104 88.8083 104.077 88.8083C104.077 88.8083 104.077 88.7292 104.156 88.7292C104.858 87.7146 107.975 83.8167 109.3 82.2563L109.456 82.1C109.535 82.0229 109.69 81.9458 109.846 81.9458C110.081 81.9458 110.315 82.1 110.315 82.3354V82.5688H110.392ZM118.733 109.004C118.733 109.237 118.498 109.473 118.265 109.473H112.808C112.575 109.473 112.342 109.237 112.342 109.004V105.573C112.342 105.34 112.575 105.106 112.808 105.106H118.265C118.498 105.106 118.733 105.34 118.733 105.573V109.004ZM118.733 102.767C118.733 103 118.498 103.233 118.265 103.233H112.808C112.575 103.233 112.342 103 112.342 102.767V99.3354C112.342 99.1 112.575 98.8667 112.808 98.8667H118.265C118.498 98.8667 118.733 99.1 118.733 99.3354V102.767ZM118.733 96.45C118.733 96.6833 118.498 96.9167 118.265 96.9167H112.808C112.575 96.9167 112.342 96.6833 112.342 96.45V93.0188C112.342 92.7833 112.575 92.55 112.808 92.55H118.265C118.498 92.55 118.733 92.7833 118.733 93.0188V96.45ZM118.733 90.1333C118.733 90.3667 118.498 90.6 118.265 90.6H112.808C112.575 90.6 112.342 90.3667 112.342 90.1333V86.7021C112.342 86.4688 112.575 86.2333 112.808 86.2333H118.265C118.498 86.2333 118.733 86.4688 118.733 86.7021V90.1333ZM118.733 83.8167C118.733 84.05 118.498 84.2854 118.265 84.2854H112.808C112.575 84.2854 112.342 84.05 112.342 83.8167V80.3854C112.342 80.1521 112.575 79.9167 112.808 79.9167H118.265C118.498 79.9167 118.733 80.1521 118.733 80.3854V83.8167Z" fill="white"/>
</g>
<path d="M30.0166 127.338V132.421H37.3416V134.221H30.0166V140.121H27.9333V125.521H38.2333V127.338H30.0166Z" fill="#5959b1"/>
<path d="M41.1731 125.521H43.2564V140.121H41.1731V125.521Z" fill="#5959b1"/>
<path d="M56.8116 140.121L52.4366 134.096L48.1116 140.121H45.72L51.2033 132.63L46.0533 125.521H48.4283L52.52 131.13L56.5616 125.521H58.8366L53.6866 132.571L59.2116 140.121H56.8116Z" fill="#5959b1"/>
<path d="M80.8107 140.121L80.794 129.48L75.519 138.346H74.5523L69.2773 129.546V140.121H67.2773V125.521H68.9857L75.0773 135.78L81.0857 125.521H82.794L82.819 140.121H80.8107Z" fill="#5959b1"/>
<path d="M92.7809 135.071V140.121H90.7142V135.03L84.9142 125.521H87.1475L91.8142 133.221L96.5142 125.521H98.5725L92.7809 135.071Z" fill="#5959b1"/>
<path d="M109.188 127.338H104.18V125.521H116.255V127.338H111.255V140.121H109.188V127.338Z" fill="#5959b1"/>
<path d="M125.118 140.288C123.639 140.288 122.31 139.967 121.127 139.321C119.948 138.671 119.021 137.778 118.343 136.638C117.671 135.5 117.335 134.228 117.335 132.821C117.335 131.417 117.671 130.144 118.343 129.005C119.021 127.867 119.948 126.975 121.127 126.33C122.31 125.68 123.639 125.355 125.118 125.355C126.579 125.355 127.898 125.68 129.077 126.33C130.26 126.975 131.185 127.863 131.852 128.996C132.518 130.13 132.852 131.405 132.852 132.821C132.852 134.238 132.518 135.513 131.852 136.646C131.185 137.78 130.26 138.671 129.077 139.321C127.898 139.967 126.579 140.288 125.118 140.288ZM125.118 138.43C126.185 138.43 127.146 138.188 128.002 137.705C128.856 137.217 129.531 136.544 130.027 135.688C130.521 134.834 130.768 133.878 130.768 132.821C130.768 131.767 130.521 130.811 130.027 129.955C129.531 129.1 128.856 128.43 128.002 127.946C127.146 127.459 126.185 127.213 125.118 127.213C124.046 127.213 123.073 127.459 122.202 127.946C121.335 128.43 120.654 129.1 120.16 129.955C119.664 130.811 119.418 131.767 119.418 132.821C119.418 133.878 119.664 134.834 120.16 135.688C120.654 136.544 121.335 137.217 122.202 137.705C123.073 138.188 124.046 138.43 125.118 138.43Z" fill="#5959b1"/>
<path d="M156.666 125.521L151.791 140.121H149.599L145.616 128.463L141.633 140.121H139.399L134.516 125.521H136.666L140.608 137.388L144.716 125.521H146.633L150.658 137.455L154.691 125.521H156.666Z" fill="#5959b1"/>
<path d="M172.076 125.521V140.121H170.36L161.601 129.23V140.121H159.518V125.521H161.226L169.985 136.405V125.521H172.076Z" fill="#5959b1"/>
<path d="M70.426 153.604C70.7426 153.693 70.9885 153.851 71.1676 154.079C71.351 154.308 71.4426 154.599 71.4426 154.954C71.4426 155.426 71.2635 155.791 70.9093 156.045C70.5531 156.295 70.0364 156.42 69.3593 156.42H66.7676V150.987H69.2093C69.826 150.987 70.3031 151.112 70.6426 151.362C70.9801 151.608 71.151 151.949 71.151 152.387C71.151 152.676 71.0843 152.924 70.951 153.129C70.8218 153.335 70.6468 153.493 70.426 153.604ZM67.5426 151.612V153.354H69.1343C69.5343 153.354 69.8385 153.283 70.051 153.137C70.2676 152.987 70.376 152.768 70.376 152.479C70.376 152.195 70.2676 151.983 70.051 151.837C69.8385 151.687 69.5343 151.612 69.1343 151.612H67.5426ZM69.326 155.795C69.7697 155.795 70.1031 155.724 70.326 155.579C70.5468 155.429 70.6593 155.199 70.6593 154.887C70.6593 154.283 70.2135 153.979 69.326 153.979H67.5426V155.795H69.326Z" fill="black"/>
<path d="M76.5779 154.537V156.42H75.8029V154.529L73.6446 150.987H74.4779L76.2196 153.854L77.9613 150.987H78.7363L76.5779 154.537Z" fill="black"/>
<path d="M89.9794 150.987V156.42H89.2044V153.995H86.0794V156.42H85.3044V150.987H86.0794V153.32H89.2044V150.987H89.9794Z" fill="black"/>
<path d="M96.9252 155.062H94.0335L93.4335 156.42H92.6335L95.1002 150.987H95.8668L98.3335 156.42H97.5168L96.9252 155.062ZM96.6502 154.437L95.4752 151.779L94.3002 154.437H96.6502Z" fill="black"/>
<path d="M104.408 156.42L102.775 154.179L101.166 156.42H100.275L102.316 153.629L100.4 150.987H101.283L102.808 153.07L104.316 150.987H105.158L103.241 153.612L105.3 156.42H104.408Z" fill="black"/>
<path d="M109.833 154.004L108.841 155.012V156.42H108.066V150.987H108.841V154.02L111.791 150.987H112.674L110.358 153.429L112.824 156.42H111.916L109.833 154.004Z" fill="black"/>
<path d="M119.439 155.745V156.42H115.498V150.987H119.331V151.662H116.273V153.329H118.998V153.987H116.273V155.745H119.439Z" fill="black"/>
<path d="M126.182 156.42L125.007 154.754C124.861 154.76 124.749 154.762 124.666 154.762H123.324V156.42H122.549V150.987H124.666C125.37 150.987 125.924 151.158 126.324 151.495C126.728 151.829 126.932 152.291 126.932 152.879C126.932 153.295 126.828 153.654 126.624 153.954C126.418 154.249 126.124 154.462 125.741 154.595L127.032 156.42H126.182ZM124.649 154.104C125.136 154.104 125.509 153.999 125.766 153.787C126.026 153.576 126.157 153.274 126.157 152.879C126.157 152.485 126.026 152.185 125.766 151.979C125.509 151.768 125.136 151.662 124.649 151.662H123.324V154.104H124.649Z" fill="black"/>
<path d="M131.626 156.479C131.214 156.479 130.818 156.418 130.435 156.295C130.055 156.168 129.76 156.002 129.543 155.795L129.835 155.195C130.039 155.379 130.303 155.529 130.626 155.645C130.947 155.762 131.28 155.82 131.626 155.82C132.076 155.82 132.412 155.745 132.635 155.595C132.855 155.441 132.968 155.237 132.968 154.987C132.968 154.799 132.905 154.645 132.785 154.529C132.662 154.412 132.512 154.324 132.335 154.262C132.155 154.202 131.903 154.133 131.576 154.054C131.17 153.954 130.839 153.858 130.585 153.762C130.335 153.662 130.12 153.51 129.943 153.304C129.764 153.099 129.676 152.824 129.676 152.479C129.676 152.185 129.751 151.92 129.901 151.687C130.055 151.454 130.289 151.268 130.601 151.129C130.912 150.991 131.297 150.92 131.76 150.92C132.08 150.92 132.395 150.962 132.701 151.045C133.012 151.129 133.28 151.249 133.51 151.404L133.251 152.02C133.022 151.877 132.778 151.768 132.518 151.695C132.262 151.618 132.01 151.579 131.76 151.579C131.32 151.579 130.989 151.66 130.768 151.82C130.545 151.983 130.435 152.191 130.435 152.445C130.435 152.629 130.495 152.779 130.618 152.895C130.745 153.012 130.901 153.104 131.085 153.17C131.268 153.237 131.518 153.308 131.835 153.379C132.245 153.474 132.572 153.57 132.818 153.67C133.068 153.77 133.28 153.92 133.46 154.12C133.643 154.32 133.735 154.593 133.735 154.937C133.735 155.22 133.655 155.483 133.501 155.72C133.345 155.954 133.11 156.141 132.793 156.279C132.476 156.412 132.087 156.479 131.626 156.479Z" fill="black"/>
</svg>
